<svg xmlns="http://www.w3.org/2000/svg" enable-background="new 0 0 92 92" viewBox="0 0 92 92"><path fill="#FEF2D8" d="M81.949 38.24396H48.8667c-4.9988 0-9.051 4.0523-9.051 9.051v.0001c0 4.9987 4.0522 9.0511 9.051 9.0511H81.949c4.9987 0 9.051-4.0524 9.051-9.0511v-.0001C91 42.29626 86.9477 38.24396 81.949 38.24396zM13.4897 32.72106H24.884c4.9988 0 9.051-4.0523 9.051-9.0511l0 0c0-4.9988-4.0522-9.05112-9.051-9.05112H13.4897c-4.9988 0-9.051 4.05232-9.051 9.05112l0 0C4.4387 28.66876 8.4909 32.72106 13.4897 32.72106zM28.3227 61.35136H10.0512c-4.999 0-9.0512 4.0523-9.0512 9.0511 0 4.9987 4.0522 9.0511 9.0512 9.0511h18.2715c4.9986 0 9.0511-4.05241 9.0511-9.0511C37.3738 65.40366 33.3213 61.35136 28.3227 61.35136z"/><circle cx="39.409" cy="8.052" r="1.21" fill="#FEF2D8"/><path fill="#FFF" d="M63.6218,20.05526H17.1081c-1.3391,0-2.4245,1.0855-2.4245,2.4244v46.85229
		c0,4.7967,3.8886,8.6852,8.6853,8.6852h33.9924c4.7964,0,8.6851-3.8885,8.6851-8.6852V22.47966
		C66.0464,21.14076,64.9609,20.05526,63.6218,20.05526z"/><path fill="#FDBE5C" d="M66.0462,32.19306v-9.7133c0-1.339-1.0855-2.4245-2.4245-2.4245H17.1081
		c-1.339,0-2.4245,1.0855-2.4245,2.4245v9.7133H66.0462z"/><path fill="#FFF" d="M24.9375 13.51684c-1.3753 0-2.4903 1.11492-2.4903 2.49012v8.6523c0 1.3752 1.115 2.4901 2.4903 2.4901 1.3752 0 2.49-1.1149 2.49-2.4901v-8.6523C27.4275 14.63176 26.3127 13.51684 24.9375 13.51684zM35.2224 13.51684c-1.3753 0-2.49 1.11492-2.49 2.49012v8.6523c0 1.3752 1.1147 2.4901 2.49 2.4901 1.3752 0 2.49-1.1149 2.49-2.4901v-8.6523C37.7124 14.63176 36.5976 13.51684 35.2224 13.51684zM45.5073 13.51684c-1.375 0-2.49 1.11492-2.49 2.49012v8.6523c0 1.3752 1.115 2.4901 2.49 2.4901 1.3755 0 2.4902-1.1149 2.4902-2.4901v-8.6523C47.9975 14.63176 46.8828 13.51684 45.5073 13.51684zM55.7925 13.51684c-1.3753 0-2.4903 1.11492-2.4903 2.49012v8.6523c0 1.3752 1.115 2.4901 2.4903 2.4901 1.3752 0 2.4899-1.1149 2.4899-2.4901v-8.6523C58.2824 14.63176 57.1677 13.51684 55.7925 13.51684z"/><path fill="#FDBE5C" d="M57.395 40.46416H23.3352c-.3589 0-.6499-.291-.6499-.6499 0-.3589.291-.6499.6499-.6499H57.395c.3589 0 .6499.291.6499.6499C58.0449 40.17316 57.7539 40.46416 57.395 40.46416zM57.395 47.71756H23.3352c-.3589 0-.6499-.291-.6499-.6499s.291-.6499.6499-.6499H57.395c.3589 0 .6499.291.6499.6499S57.7539 47.71756 57.395 47.71756zM57.395 54.97096H23.3352c-.3589 0-.6499-.291-.6499-.6499 0-.3589.291-.6499.6499-.6499H57.395c.3589 0 .6499.291.6499.6499C58.0449 54.67996 57.7539 54.97096 57.395 54.97096zM57.395 62.22436H23.3352c-.3589 0-.6499-.291-.6499-.6499 0-.3589.291-.6499.6499-.6499H57.395c.3589 0 .6499.291.6499.6499C58.0449 61.93336 57.7539 62.22436 57.395 62.22436zM57.395 69.47776H23.3352c-.3589 0-.6499-.291-.6499-.64993 0-.35878.291-.64988.6499-.64988H57.395c.3589 0 .6499.2911.6499.64988C58.0449 69.18676 57.7539 69.47776 57.395 69.47776z"/><path fill="#FFF" d="M73.8524,71.14915L73.8524,71.14915c-2.2462,0-4.0672-1.821-4.0672-4.0672v-33.2709l4.0672-9l4.0672,9
		v33.2709C77.9196,69.32816,76.0986,71.14915,73.8524,71.14915z"/><path fill="#FDBE5C" d="M69.7852,61.03896v6.043c0,2.2462,1.8209,4.0672,4.0672,4.0672h0.0001c2.2463,0,4.0672-1.821,4.0672-4.0672
		v-6.043H69.7852z"/><line x1="69.785" x2="77.92" y1="33.811" y2="33.811" fill="#FFF"/><line x1="73.852" x2="73.852" y1="33.811" y2="46.227" fill="#FFF"/><path fill="#010101" d="M63.6216 19.05384h-4.8401v-3.05c0-1.65-1.3401-2.99-2.99-2.99s-2.99 1.34-2.99 2.99v3.05h-4.3001v-3.05c0-1.65-1.3498-2.99-2.9899-2.99-1.65 0-2.99 1.34-2.99 2.99v3.05h-4.3101v-3.05c0-1.65-1.3398-2.99-2.9897-2.99-1.6502 0-2.9903 1.34-2.9903 2.99v3.05h-4.2998v-3.05c0-1.65-1.3501-2.99-2.9902-2.99-1.6499 0-2.9898 1.34-2.9898 2.99v3.05h-4.8401c-1.8898 0-3.4299 1.54-3.4299 3.43v9.71 37.14c0 5.34 4.3499 9.68 9.69 9.68h33.9899c5.3401 0 9.68-4.34 9.68-9.68v-37.14-9.71C67.0415 20.59384 65.5115 19.05384 63.6216 19.05384zM53.8015 16.00384c0-1.09.8899-1.99 1.99-1.99s1.99.9 1.99 1.99c0 3.23052 0 5.62122 0 8.66 0 1.09-.8899 1.99-1.99 1.99s-1.99-.9-1.99-1.99C53.8015 20.64546 53.8015 18.59846 53.8015 16.00384zM43.5215 16.00384c0-1.09.8901-1.99 1.99-1.99 1.09 0 1.9899.9 1.9899 1.99 0 .22452 0 8.83192 0 8.66 0 1.09-.8999 1.99-1.9899 1.99-1.0999 0-1.99-.9-1.99-1.99C43.5215 20.64546 43.5215 18.59846 43.5215 16.00384zM33.2314 16.00384c0-1.09.8902-1.99 1.9903-1.99 1.0998 0 1.9897.9 1.9897 1.99 0 .22452 0 8.83192 0 8.66 0 1.09-.8899 1.99-1.9897 1.99-1.1001 0-1.9903-.9-1.9903-1.99C33.2314 20.64546 33.2314 18.59846 33.2314 16.00384zM22.9516 16.00384c0-1.09.8899-1.99 1.9898-1.99 1.0901 0 1.9902.9 1.9902 1.99 0 .22452 0 8.83192 0 8.66 0 1.09-.9001 1.99-1.9902 1.99-1.0999 0-1.9898-.9-1.9898-1.99C22.9516 20.64546 22.9516 18.59846 22.9516 16.00384zM15.6816 22.48384c0-.79.6399-1.43 1.4299-1.43h4.8401v3.61c0 1.64 1.3399 2.99 2.9898 2.99 1.6401 0 2.9902-1.35 2.9902-2.99v-3.61h4.2998v3.61c0 1.64 1.3401 2.99 2.9903 2.99 1.6499 0 2.9897-1.35 2.9897-2.99v-3.61h4.3101v3.61c0 1.64 1.34 2.99 2.99 2.99 1.6401 0 2.9899-1.35 2.9899-2.99v-3.61h4.3001v3.61c0 1.64 1.3401 2.99 2.99 2.99s2.99-1.35 2.99-2.99v-3.61h4.8401c.79 0 1.4199.64 1.4199 1.43v8.71H15.6816V22.48384zM57.3615 77.01384H23.3716c-4.24 0-7.69-3.44-7.69-7.68v-36.14h49.3599v36.14C65.0415 73.57384 61.6015 77.01384 57.3615 77.01384zM74.4414 24.54384c-.21-.47-.9697-.47-1.1799 0-4.2017 9.29772-4.1299 9.078-4.1299 9.27 0 11.46992 0 26.72312 0 33.27 0 2.6 2.1198 4.71999 4.7199 4.71999s4.72-2.12 4.72-4.71999c0-7.67438 0-21.56568 0-33.27C78.5715 33.59326 78.584 33.72684 74.4414 24.54384zM70.4316 34.46076h2.771v11.7666c0 .3588.291.6499.6499.6499s.6499-.2911.6499-.6499v-11.7666h2.7691v25.93308h-6.8399V34.46076zM73.8515 26.39384l3.0586 6.76712h-6.1172L73.8515 26.39384zM77.2715 67.08384c0 .93999-.3799 1.8-1 2.42-.6199.62-1.48 1-2.42 1-1.8798 0-3.4199-1.54-3.4199-3.42v-5.4h6.8399V67.08384z"/><circle cx="79.992" cy="17.773" r="3.154" fill="#D2EDF6"/><circle cx="6.97" cy="46.227" r="1.486" fill="#CF95C2"/><circle cx="86.184" cy="70.02" r="1.129" fill="#F3765D"/><g><circle cx="62.929" cy="84.028" r="1.129" fill="#84B0DE"/></g></svg>